<svg version="1.1" id="Layer_1" xmlns="http://www.w3.org/2000/svg" xmlns:xlink="http://www.w3.org/1999/xlink" x="0px" y="0px"
	 width="100%" viewBox="0 0 512 512" enable-background="new 0 0 512 512" xml:space="preserve">
<path fill="#010101" opacity="1.000000" stroke="none" 
	d="
M1.000000,179.000000 
	C1.000000,119.333336 1.000000,60.166668 1.000000,1.000000 
	C171.666672,1.000000 342.333344,1.000000 513.000000,1.000000 
	C513.000000,171.666672 513.000000,342.333344 513.000000,513.000000 
	C342.333344,513.000000 171.666672,513.000000 1.000000,513.000000 
	C1.000000,401.833344 1.000000,290.666656 1.000000,179.000000 
M8.015795,424.865784 
	C8.015795,426.994324 8.015795,429.122864 8.015795,431.092133 
	C14.923833,433.503784 15.993258,435.043915 16.000286,442.199341 
	C16.011570,453.689117 15.869072,465.181213 16.057285,476.667969 
	C16.226007,486.965332 24.124346,495.774658 33.897495,497.026886 
	C44.944633,498.442383 54.747749,492.103180 57.525574,481.598053 
	C58.114666,479.370239 57.998459,476.960938 58.532566,474.712555 
	C59.452961,470.837891 61.983952,468.678253 66.070328,468.852264 
	C70.116386,469.024597 72.468201,471.261902 73.106567,475.256714 
	C73.368752,476.897430 73.465591,478.567902 73.787003,480.195343 
	C75.658951,489.673920 83.420746,496.592621 92.754745,497.158539 
	C102.729935,497.763336 111.331932,492.214874 114.368134,482.959778 
	C115.187088,480.463379 115.313194,477.743286 115.802315,475.134308 
	C116.674316,470.482941 120.466072,467.877075 124.924423,469.006165 
	C129.455368,470.153687 130.385895,473.734589 130.798279,477.803131 
	C131.962891,489.293457 140.503525,497.182678 151.627411,497.229309 
	C162.849960,497.276398 171.692490,489.079895 172.874878,477.532745 
	C172.891815,477.367340 172.885483,477.199585 172.901245,477.033997 
	C173.425858,471.526367 175.839554,468.848328 180.307190,468.815002 
	C184.914032,468.780579 187.495605,471.664734 187.969620,477.375488 
	C188.844788,487.919250 196.575333,496.149139 206.485413,497.087158 
	C217.464371,498.126343 226.710709,491.864990 229.440079,481.395660 
	C229.978882,479.328857 229.801163,477.078796 230.307312,474.999268 
	C231.285599,470.979980 233.803741,468.577087 238.157654,468.861237 
	C242.208420,469.125641 244.462616,471.480957 245.042450,475.452637 
	C245.186310,476.438110 245.130890,477.452423 245.270355,478.438843 
	C246.893860,489.921875 255.958817,497.615570 267.336823,497.189240 
	C278.326050,496.777435 287.072449,488.386810 287.277222,476.902954 
	C287.591644,459.272888 287.219604,441.630615 287.409576,423.090424 
	C287.409576,415.517090 287.409576,407.943756 287.409576,400.077423 
	C284.931946,400.077423 283.123810,400.077393 281.315704,400.077393 
	C226.047668,400.077057 170.778915,400.248932 115.511833,400.020294 
	C73.546745,399.846680 41.086250,381.789825 18.014730,346.771576 
	C17.578518,346.109497 16.957602,345.569092 16.000652,344.500366 
	C16.000652,365.076538 15.857956,384.884918 16.084133,404.689117 
	C16.155704,410.955841 15.374348,416.085724 8.165398,416.999878 
	C8.165398,419.695770 8.165398,421.850525 8.015795,424.865784 
M224.738297,307.704132 
	C218.019608,340.932495 199.990845,366.412811 170.352020,385.072998 
	C172.652634,385.072998 173.482590,385.072968 174.312531,385.072968 
	C249.292358,385.072937 324.272217,385.093628 399.251984,385.027435 
	C404.396423,385.022888 409.567535,384.595551 414.680054,383.980621 
	C453.738983,379.282532 489.054199,345.716705 496.069611,306.186859 
	C496.622253,302.621979 497.174896,299.057098 497.722076,295.527527 
	C490.535492,293.941711 487.872101,291.547028 488.031311,287.081787 
	C488.185150,282.767426 490.835541,280.658661 497.813538,279.336029 
	C497.872131,278.868011 497.986511,278.380951 497.986450,277.893890 
	C497.979095,222.577316 498.090942,167.260239 497.871796,111.944473 
	C497.803925,94.813957 492.970490,78.777176 483.942993,64.176414 
	C480.924500,59.294411 479.338318,54.866837 484.592773,50.197716 
	C481.901672,47.106384 479.597290,44.140762 476.916718,41.566963 
	C476.071655,40.755577 473.884766,40.349083 472.885986,40.866131 
	C469.021515,42.866714 465.934570,41.937466 462.807434,39.370991 
	C444.218445,24.114771 422.906006,16.688316 398.823059,16.719332 
	C324.512146,16.815037 250.201050,16.752659 175.890030,16.762953 
	C174.508286,16.763144 173.126587,16.902819 170.896454,17.023216 
	C174.666901,19.617996 177.705399,21.566505 180.582977,23.729139 
	C183.507492,25.927036 186.400513,28.197960 189.088882,30.674076 
	C214.390167,53.977695 226.606064,82.947296 226.574295,117.257179 
	C226.525986,169.408142 226.561661,221.559174 226.561691,273.710175 
	C226.561691,275.659241 226.561707,277.608337 226.561707,279.470398 
	C233.585663,280.472229 236.432999,282.667511 236.371262,287.099609 
	C236.349487,288.663391 235.954758,290.865875 234.897278,291.642670 
	C232.384262,293.488586 229.373566,294.656952 226.132568,296.320557 
	C225.822098,299.411072 225.441177,303.202881 224.738297,307.704132 
M56.664417,35.110130 
	C29.628965,55.597153 15.985226,82.745499 15.996387,116.722031 
	C16.014833,172.873642 15.982398,229.025284 16.036253,285.176849 
	C16.040714,289.827209 16.284966,294.507874 16.845219,299.122559 
	C24.029928,358.302002 82.130722,397.418152 139.426224,381.713470 
	C182.651535,369.865479 211.428177,331.495667 211.526917,285.167969 
	C211.646606,229.016617 211.573914,172.864777 211.523788,116.713211 
	C211.519485,111.888924 211.378860,107.024239 210.765747,102.247093 
	C201.357712,28.943005 117.991264,-7.698487 56.664417,35.110130 
z"/>
<path fill="#F9F6F9" opacity="1.000000" stroke="none" 
	d="
M225.060242,306.994690 
	C225.441177,303.202881 225.822098,299.411072 226.132568,296.320557 
	C229.373566,294.656952 232.384262,293.488586 234.897278,291.642670 
	C235.954758,290.865875 236.349487,288.663391 236.371262,287.099609 
	C236.432999,282.667511 233.585663,280.472229 226.561707,279.470398 
	C226.561707,277.608337 226.561691,275.659241 226.561691,273.710175 
	C226.561661,221.559174 226.525986,169.408142 226.574295,117.257179 
	C226.606064,82.947296 214.390167,53.977695 189.088882,30.674076 
	C186.400513,28.197960 183.507492,25.927036 180.582977,23.729139 
	C177.705399,21.566505 174.666901,19.617996 170.896454,17.023216 
	C173.126587,16.902819 174.508286,16.763144 175.890030,16.762953 
	C250.201050,16.752659 324.512146,16.815037 398.823059,16.719332 
	C422.906006,16.688316 444.218445,24.114771 462.807434,39.370991 
	C465.934570,41.937466 469.021515,42.866714 472.885986,40.866131 
	C473.884766,40.349083 476.071655,40.755577 476.916718,41.566963 
	C479.597290,44.140762 481.901672,47.106384 484.592773,50.197716 
	C479.338318,54.866837 480.924500,59.294411 483.942993,64.176414 
	C492.970490,78.777176 497.803925,94.813957 497.871796,111.944473 
	C498.090942,167.260239 497.979095,222.577316 497.986450,277.893890 
	C497.986511,278.380951 497.872131,278.868011 497.813538,279.336029 
	C490.835541,280.658661 488.185150,282.767426 488.031311,287.081787 
	C487.872101,291.547028 490.535492,293.941711 497.722076,295.527527 
	C497.174896,299.057098 496.622253,302.621979 495.481567,306.588379 
	C404.949066,306.991516 315.004669,306.993103 225.060242,306.994690 
M250.683334,288.908661 
	C251.623779,292.864899 254.337906,294.779816 258.194305,294.875397 
	C264.321045,295.027313 270.461426,295.086609 276.582825,294.847290 
	C281.134277,294.669434 284.105225,291.308746 283.997070,287.140228 
	C283.889465,282.994049 280.799225,280.042816 276.142212,279.945404 
	C270.510956,279.827606 264.874908,279.868561 259.241821,279.926666 
	C253.248459,279.988464 251.229996,281.943298 250.683334,288.908661 
M400.155273,294.897308 
	C406.314636,294.905304 412.477661,295.046906 418.632202,294.878693 
	C423.492401,294.745850 426.757050,291.349609 426.581848,287.075592 
	C426.410431,282.893127 423.326263,280.039886 418.577057,279.945465 
	C413.085480,279.836304 407.586761,280.035309 402.097595,279.876343 
	C397.523407,279.743866 394.050415,281.323517 393.175293,285.982758 
	C392.300690,290.639526 394.825989,293.546967 400.155273,294.897308 
M450.786804,294.931824 
	C456.107513,294.921478 461.519623,295.484558 466.710205,294.657623 
	C469.284515,294.247467 472.444336,291.715790 473.485931,289.333588 
	C474.305389,287.459320 472.927399,283.827881 471.379120,281.895416 
	C468.853577,278.743225 445.678589,278.680054 443.214813,281.880280 
	C441.639587,283.926361 440.705963,287.424744 441.224792,289.908569 
	C442.085083,294.027039 445.889160,295.104706 450.786804,294.931824 
M330.985992,284.535004 
	C329.395599,281.080750 326.618439,279.817474 322.923431,279.888214 
	C317.426117,279.993439 311.924561,279.859467 306.426178,279.931946 
	C301.300385,279.999481 298.110168,282.781433 297.985168,287.115234 
	C297.853516,291.679535 301.110504,294.787994 306.432648,294.902161 
	C311.929474,295.020111 317.432770,295.023895 322.929535,294.905670 
	C329.120178,294.772552 331.708557,291.645905 330.985992,284.535004 
M350.599091,294.401123 
	C357.733398,294.561401 364.873260,294.959076 371.999969,294.792999 
	C376.285339,294.693115 379.097321,291.211487 379.024048,287.198639 
	C378.947510,283.008636 375.870087,280.045319 371.174622,279.947327 
	C365.515564,279.829254 359.851044,279.986694 354.191132,279.891235 
	C350.314453,279.825897 347.211548,281.020508 345.975952,284.921478 
	C344.705780,288.931580 346.041321,292.096008 350.599091,294.401123 
z"/>
<path fill="#DCE9FA" opacity="1.000000" stroke="none" 
	d="
M56.969124,34.922623 
	C117.991264,-7.698487 201.357712,28.943005 210.765747,102.247093 
	C211.378860,107.024239 211.519485,111.888924 211.523788,116.713211 
	C211.573914,172.864777 211.646606,229.016617 211.526917,285.167969 
	C211.428177,331.495667 182.651535,369.865479 139.426224,381.713470 
	C82.130722,397.418152 24.029928,358.302002 16.845219,299.122559 
	C16.284966,294.507874 16.040714,289.827209 16.036253,285.176849 
	C15.982398,229.025284 16.014833,172.873642 15.996387,116.722031 
	C15.985226,82.745499 29.628965,55.597153 56.969124,34.922623 
M125.325760,272.982391 
	C142.916443,266.643341 153.772400,252.764969 153.938492,235.544998 
	C154.161697,212.405746 154.221878,189.259720 153.923630,166.122131 
	C153.650925,144.966507 136.031265,127.616531 114.918831,127.083183 
	C93.598404,126.544579 74.717545,142.673767 73.959282,163.836136 
	C73.077774,188.438705 72.942490,213.129929 73.961288,237.721451 
	C75.006744,262.956482 100.068573,279.846771 125.325760,272.982391 
z"/>
<path fill="#DDEAFB" opacity="1.000000" stroke="none" 
	d="
M224.899261,307.349426 
	C315.004669,306.993103 404.949066,306.991516 495.349762,306.989746 
	C489.054199,345.716705 453.738983,379.282532 414.680054,383.980621 
	C409.567535,384.595551 404.396423,385.022888 399.251984,385.027435 
	C324.272217,385.093628 249.292358,385.072937 174.312531,385.072968 
	C173.482590,385.072968 172.652634,385.072998 170.352020,385.072998 
	C199.990845,366.412811 218.019608,340.932495 224.899261,307.349426 
z"/>
<path fill="#DCE9FA" opacity="1.000000" stroke="none" 
	d="
M287.138855,423.993500 
	C287.219604,441.630615 287.591644,459.272888 287.277222,476.902954 
	C287.072449,488.386810 278.326050,496.777435 267.336823,497.189240 
	C255.958817,497.615570 246.893860,489.921875 245.270355,478.438843 
	C245.130890,477.452423 245.186310,476.438110 245.042450,475.452637 
	C244.462616,471.480957 242.208420,469.125641 238.157654,468.861237 
	C233.803741,468.577087 231.285599,470.979980 230.307312,474.999268 
	C229.801163,477.078796 229.978882,479.328857 229.440079,481.395660 
	C226.710709,491.864990 217.464371,498.126343 206.485413,497.087158 
	C196.575333,496.149139 188.844788,487.919250 187.969620,477.375488 
	C187.495605,471.664734 184.914032,468.780579 180.307190,468.815002 
	C175.839554,468.848328 173.425858,471.526367 172.901245,477.033997 
	C172.885483,477.199585 172.891815,477.367340 172.874878,477.532745 
	C171.692490,489.079895 162.849960,497.276398 151.627411,497.229309 
	C140.503525,497.182678 131.962891,489.293457 130.798279,477.803131 
	C130.385895,473.734589 129.455368,470.153687 124.924423,469.006165 
	C120.466072,467.877075 116.674316,470.482941 115.802315,475.134308 
	C115.313194,477.743286 115.187088,480.463379 114.368134,482.959778 
	C111.331932,492.214874 102.729935,497.763336 92.754745,497.158539 
	C83.420746,496.592621 75.658951,489.673920 73.787003,480.195343 
	C73.465591,478.567902 73.368752,476.897430 73.106567,475.256714 
	C72.468201,471.261902 70.116386,469.024597 66.070328,468.852264 
	C61.983952,468.678253 59.452961,470.837891 58.532566,474.712555 
	C57.998459,476.960938 58.114666,479.370239 57.525574,481.598053 
	C54.747749,492.103180 44.944633,498.442383 33.897495,497.026886 
	C24.124346,495.774658 16.226007,486.965332 16.057285,476.667969 
	C15.869072,465.181213 16.011570,453.689117 16.000286,442.199341 
	C15.993258,435.043915 14.923833,433.503784 8.015795,431.092133 
	C8.015795,429.122864 8.015795,426.994324 8.548706,424.433533 
	C101.767365,423.998657 194.453110,423.996063 287.138855,423.993500 
z"/>
<path fill="#CAE1FE" opacity="1.000000" stroke="none" 
	d="
M287.274231,423.541962 
	C194.453110,423.996063 101.767365,423.998657 8.623507,424.003265 
	C8.165398,421.850525 8.165398,419.695770 8.165398,416.999878 
	C15.374348,416.085724 16.155704,410.955841 16.084133,404.689117 
	C15.857956,384.884918 16.000652,365.076538 16.000652,344.500366 
	C16.957602,345.569092 17.578518,346.109497 18.014730,346.771576 
	C41.086250,381.789825 73.546745,399.846680 115.511833,400.020294 
	C170.778915,400.248932 226.047668,400.077057 281.315704,400.077393 
	C283.123810,400.077393 284.931946,400.077423 287.409576,400.077423 
	C287.409576,407.943756 287.409576,415.517090 287.274231,423.541962 
z"/>
<path fill="#050505" opacity="1.000000" stroke="none" 
	d="
M250.591278,288.548828 
	C251.229996,281.943298 253.248459,279.988464 259.241821,279.926666 
	C264.874908,279.868561 270.510956,279.827606 276.142212,279.945404 
	C280.799225,280.042816 283.889465,282.994049 283.997070,287.140228 
	C284.105225,291.308746 281.134277,294.669434 276.582825,294.847290 
	C270.461426,295.086609 264.321045,295.027313 258.194305,294.875397 
	C254.337906,294.779816 251.623779,292.864899 250.591278,288.548828 
z"/>
<path fill="#050505" opacity="1.000000" stroke="none" 
	d="
M399.728516,294.848877 
	C394.825989,293.546967 392.300690,290.639526 393.175293,285.982758 
	C394.050415,281.323517 397.523407,279.743866 402.097595,279.876343 
	C407.586761,280.035309 413.085480,279.836304 418.577057,279.945465 
	C423.326263,280.039886 426.410431,282.893127 426.581848,287.075592 
	C426.757050,291.349609 423.492401,294.745850 418.632202,294.878693 
	C412.477661,295.046906 406.314636,294.905304 399.728516,294.848877 
z"/>
<path fill="#040404" opacity="1.000000" stroke="none" 
	d="
M450.330261,294.931763 
	C445.889160,295.104706 442.085083,294.027039 441.224792,289.908569 
	C440.705963,287.424744 441.639587,283.926361 443.214813,281.880280 
	C445.678589,278.680054 468.853577,278.743225 471.379120,281.895416 
	C472.927399,283.827881 474.305389,287.459320 473.485931,289.333588 
	C472.444336,291.715790 469.284515,294.247467 466.710205,294.657623 
	C461.519623,295.484558 456.107513,294.921478 450.330261,294.931763 
z"/>
<path fill="#040404" opacity="1.000000" stroke="none" 
	d="
M331.072571,284.898773 
	C331.708557,291.645905 329.120178,294.772552 322.929535,294.905670 
	C317.432770,295.023895 311.929474,295.020111 306.432648,294.902161 
	C301.110504,294.787994 297.853516,291.679535 297.985168,287.115234 
	C298.110168,282.781433 301.300385,279.999481 306.426178,279.931946 
	C311.924561,279.859467 317.426117,279.993439 322.923431,279.888214 
	C326.618439,279.817474 329.395599,281.080750 331.072571,284.898773 
z"/>
<path fill="#040404" opacity="1.000000" stroke="none" 
	d="
M350.222046,294.247192 
	C346.041321,292.096008 344.705780,288.931580 345.975952,284.921478 
	C347.211548,281.020508 350.314453,279.825897 354.191132,279.891235 
	C359.851044,279.986694 365.515564,279.829254 371.174622,279.947327 
	C375.870087,280.045319 378.947510,283.008636 379.024048,287.198639 
	C379.097321,291.211487 376.285339,294.693115 371.999969,294.792999 
	C364.873260,294.959076 357.733398,294.561401 350.222046,294.247192 
z"/>
<path fill="#040404" opacity="1.000000" stroke="none" 
	d="
M124.923393,273.053162 
	C100.068573,279.846771 75.006744,262.956482 73.961288,237.721451 
	C72.942490,213.129929 73.077774,188.438705 73.959282,163.836136 
	C74.717545,142.673767 93.598404,126.544579 114.918831,127.083183 
	C136.031265,127.616531 153.650925,144.966507 153.923630,166.122131 
	C154.221878,189.259720 154.161697,212.405746 153.938492,235.544998 
	C153.772400,252.764969 142.916443,266.643341 124.923393,273.053162 
M101.403877,256.328308 
	C120.080940,265.393250 138.937531,253.698135 138.979568,232.973465 
	C139.023148,211.494614 139.020294,190.015549 138.977997,168.536682 
	C138.948471,153.537979 127.868912,142.048767 113.586510,142.087799 
	C99.458969,142.126389 88.784935,153.305084 88.720818,168.397476 
	C88.628845,190.042526 88.770676,211.688599 88.664993,233.333527 
	C88.617081,243.145798 92.463394,250.694214 101.403877,256.328308 
z"/>
<path fill="#756E78" opacity="1.000000" stroke="none" 
	d="
M101.075539,256.147491 
	C92.463394,250.694214 88.617081,243.145798 88.664993,233.333527 
	C88.770676,211.688599 88.628845,190.042526 88.720818,168.397476 
	C88.784935,153.305084 99.458969,142.126389 113.586510,142.087799 
	C127.868912,142.048767 138.948471,153.537979 138.977997,168.536682 
	C139.020294,190.015549 139.023148,211.494614 138.979568,232.973465 
	C138.937531,253.698135 120.080940,265.393250 101.075539,256.147491 
z"/>
</svg>