<svg version="1.1" id="Layer_1" xmlns="http://www.w3.org/2000/svg" xmlns:xlink="http://www.w3.org/1999/xlink" x="0px" y="0px"
	 width="100%" viewBox="0 0 512 512" enable-background="new 0 0 512 512" xml:space="preserve">
<path fill="#000000" opacity="1.000000" stroke="none" 
	d="
M331.000000,513.000000 
	C220.693466,513.000000 110.886925,513.000000 1.040193,513.000000 
	C1.040193,342.401764 1.040193,171.803528 1.040193,1.102647 
	C171.556549,1.102647 342.113159,1.102647 512.834900,1.102647 
	C512.834900,171.666534 512.834900,342.333252 512.834900,513.000000 
	C452.470184,513.000000 391.985077,513.000000 331.000000,513.000000 
M233.917267,95.362137 
	C215.349121,108.622520 196.746216,121.834831 178.253784,135.199982 
	C175.751114,137.008743 173.456528,139.335724 171.653564,141.845200 
	C159.221756,159.148529 146.958588,176.572906 134.616821,193.941055 
	C122.182411,211.439575 109.719795,228.918060 97.052032,246.710831 
	C113.150276,261.562439 129.154190,276.374939 145.266479,291.068634 
	C146.200790,291.920715 148.024612,292.136444 149.417328,292.093414 
	C160.902802,291.738525 172.387939,291.331757 183.866135,290.791016 
	C216.967056,289.231476 250.060471,287.501190 283.168518,286.117035 
	C287.709351,285.927185 289.796143,284.644318 291.053040,280.145599 
	C299.617615,249.490524 308.513885,218.928268 317.179718,188.301147 
	C318.476746,183.717224 320.914124,180.502975 324.930664,177.852036 
	C343.264008,165.751953 361.426727,153.393234 379.638092,141.108673 
	C380.916199,140.246506 382.091705,139.232178 383.820251,137.898849 
	C381.839142,137.123978 380.652527,136.597610 379.426544,136.189316 
	C336.037537,121.739265 292.599365,107.433861 249.306351,92.701881 
	C243.462372,90.713249 238.892868,90.451546 233.917267,95.362137 
M131.560028,356.038269 
	C125.499840,372.722931 119.439659,389.407593 113.275848,406.377563 
	C115.587364,406.915436 117.172905,407.366272 118.787933,407.648010 
	C144.526688,412.137512 170.241760,416.773315 196.026047,420.985107 
	C204.813156,422.420471 213.937363,424.276886 222.629211,423.345001 
	C248.765671,420.542694 274.766846,416.474762 300.816772,412.871399 
	C308.819275,411.764465 316.808807,410.563751 325.222046,409.345520 
	C322.727783,396.844482 320.522675,384.960999 317.961975,373.154602 
	C314.181488,355.724365 312.833679,337.578888 302.263977,322.145050 
	C298.618408,316.821777 295.859802,310.846405 293.099579,304.979095 
	C291.571381,301.730652 289.579102,300.857849 286.127716,301.049255 
	C265.841339,302.174072 245.542938,303.081970 225.248489,304.061096 
	C201.460831,305.208740 177.675308,306.405426 153.882874,307.443970 
	C150.459396,307.593384 148.619888,308.657654 147.424469,312.110596 
	C142.416962,326.574524 137.067245,340.919983 131.560028,356.038269 
M308.687256,274.167175 
	C307.438690,278.480499 306.388672,282.864838 304.879272,287.084839 
	C303.653778,290.511169 304.046631,293.348236 305.848267,296.515564 
	C310.367279,304.460205 315.262909,312.315674 318.621155,320.758362 
	C321.649506,328.371613 326.773193,329.776123 333.935394,330.099823 
	C363.859375,331.452362 393.764771,333.213287 423.678192,334.801697 
	C430.798248,335.179779 437.922943,335.469788 445.373505,335.815521 
	C445.564240,334.169800 445.805817,332.716827 445.890656,331.254761 
	C446.672211,317.789459 447.571808,304.328186 448.090851,290.852386 
	C448.226990,287.317566 447.755524,283.519257 446.552368,280.209351 
	C431.096680,237.691376 415.459900,195.239227 399.855743,152.775284 
	C399.250580,151.128494 398.512268,149.530609 397.764404,147.738342 
	C396.720306,148.318970 396.120575,148.597198 395.578888,148.961700 
	C375.413757,162.531036 355.213318,176.048996 335.162231,189.784882 
	C333.341278,191.032303 331.909973,193.519440 331.268066,195.714630 
	C323.705963,221.574677 316.329132,247.488907 308.687256,274.167175 
M106.309242,276.190918 
	C100.968071,271.332581 95.626900,266.474243 90.102127,261.448883 
	C89.283249,262.753632 88.847786,263.267914 88.604576,263.861053 
	C81.411850,281.403168 74.150505,298.918549 67.195648,316.554718 
	C66.491531,318.340240 67.128403,321.112488 68.030441,323.003448 
	C78.270889,344.470703 88.679764,365.857605 99.061874,387.257141 
	C99.744820,388.664886 100.577057,390.000183 101.595352,391.827728 
	C102.286430,390.686615 102.717133,390.179840 102.930443,389.593872 
	C113.103073,361.649963 123.215057,333.683868 133.473511,305.771576 
	C134.576309,302.770935 133.401443,301.173859 131.403183,299.352936 
	C123.163254,291.844116 115.008759,284.241577 106.309242,276.190918 
M341.825104,345.734833 
	C337.394714,345.485870 332.964325,345.236908 327.972809,344.956390 
	C331.994629,364.809052 335.861633,383.897644 339.878845,403.727753 
	C369.311401,385.849274 397.717041,368.594543 426.122711,351.339844 
	C425.938263,350.962646 425.753845,350.585449 425.569397,350.208221 
	C397.968597,348.737976 370.367767,347.267700 341.825104,345.734833 
M101.922241,163.706802 
	C105.018517,175.664780 108.114792,187.622757 111.354164,200.133408 
	C114.634460,195.525696 117.556656,191.093231 120.832870,186.940018 
	C122.848564,184.384766 123.338524,182.154999 121.534470,179.319214 
	C115.653656,170.075211 110.114059,160.604248 103.967613,151.543213 
	C100.871162,146.978424 96.748863,143.109512 93.090439,138.925934 
	C92.855438,139.115479 92.620438,139.305038 92.385429,139.494583 
	C95.487526,147.313004 98.589630,155.131424 101.922241,163.706802 
M158.728378,126.856483 
	C158.073639,125.021515 157.418900,123.186546 156.764145,121.351578 
	C156.499435,121.364731 156.234726,121.377884 155.970016,121.391037 
	C155.014130,127.439049 154.058243,133.487061 153.102356,139.535065 
	C156.139038,135.918289 161.451843,133.459335 158.728378,126.856483 
z"/>
<path fill="#C68659" opacity="1.000000" stroke="none" 
	d="
M234.218872,95.154556 
	C238.892868,90.451546 243.462372,90.713249 249.306351,92.701881 
	C292.599365,107.433861 336.037537,121.739265 379.426544,136.189316 
	C380.652527,136.597610 381.839142,137.123978 383.820251,137.898849 
	C382.091705,139.232178 380.916199,140.246506 379.638092,141.108673 
	C361.426727,153.393234 343.264008,165.751953 324.930664,177.852036 
	C320.914124,180.502975 318.476746,183.717224 317.179718,188.301147 
	C308.513885,218.928268 299.617615,249.490524 291.053040,280.145599 
	C289.796143,284.644318 287.709351,285.927185 283.168518,286.117035 
	C250.060471,287.501190 216.967056,289.231476 183.866135,290.791016 
	C172.387939,291.331757 160.902802,291.738525 149.417328,292.093414 
	C148.024612,292.136444 146.200790,291.920715 145.266479,291.068634 
	C129.154190,276.374939 113.150276,261.562439 97.052032,246.710831 
	C109.719795,228.918060 122.182411,211.439575 134.616821,193.941055 
	C146.958588,176.572906 159.221756,159.148529 171.653564,141.845200 
	C173.456528,139.335724 175.751114,137.008743 178.253784,135.199982 
	C196.746216,121.834831 215.349121,108.622520 234.218872,95.154556 
z"/>
<path fill="#A25F3F" opacity="1.000000" stroke="none" 
	d="
M131.701447,355.673553 
	C137.067245,340.919983 142.416962,326.574524 147.424469,312.110596 
	C148.619888,308.657654 150.459396,307.593384 153.882874,307.443970 
	C177.675308,306.405426 201.460831,305.208740 225.248489,304.061096 
	C245.542938,303.081970 265.841339,302.174072 286.127716,301.049255 
	C289.579102,300.857849 291.571381,301.730652 293.099579,304.979095 
	C295.859802,310.846405 298.618408,316.821777 302.263977,322.145050 
	C312.833679,337.578888 314.181488,355.724365 317.961975,373.154602 
	C320.522675,384.960999 322.727783,396.844482 325.222046,409.345520 
	C316.808807,410.563751 308.819275,411.764465 300.816772,412.871399 
	C274.766846,416.474762 248.765671,420.542694 222.629211,423.345001 
	C213.937363,424.276886 204.813156,422.420471 196.026047,420.985107 
	C170.241760,416.773315 144.526688,412.137512 118.787933,407.648010 
	C117.172905,407.366272 115.587364,406.915436 113.275848,406.377563 
	C119.439659,389.407593 125.499840,372.722931 131.701447,355.673553 
z"/>
<path fill="#B36D49" opacity="1.000000" stroke="none" 
	d="
M308.795380,273.778015 
	C316.329132,247.488907 323.705963,221.574677 331.268066,195.714630 
	C331.909973,193.519440 333.341278,191.032303 335.162231,189.784882 
	C355.213318,176.048996 375.413757,162.531036 395.578888,148.961700 
	C396.120575,148.597198 396.720306,148.318970 397.764404,147.738342 
	C398.512268,149.530609 399.250580,151.128494 399.855743,152.775284 
	C415.459900,195.239227 431.096680,237.691376 446.552368,280.209351 
	C447.755524,283.519257 448.226990,287.317566 448.090851,290.852386 
	C447.571808,304.328186 446.672211,317.789459 445.890656,331.254761 
	C445.805817,332.716827 445.564240,334.169800 445.373505,335.815521 
	C437.922943,335.469788 430.798248,335.179779 423.678192,334.801697 
	C393.764771,333.213287 363.859375,331.452362 333.935394,330.099823 
	C326.773193,329.776123 321.649506,328.371613 318.621155,320.758362 
	C315.262909,312.315674 310.367279,304.460205 305.848267,296.515564 
	C304.046631,293.348236 303.653778,290.511169 304.879272,287.084839 
	C306.388672,282.864838 307.438690,278.480499 308.795380,273.778015 
z"/>
<path fill="#7D422E" opacity="1.000000" stroke="none" 
	d="
M106.566040,276.432190 
	C115.008759,284.241577 123.163254,291.844116 131.403183,299.352936 
	C133.401443,301.173859 134.576309,302.770935 133.473511,305.771576 
	C123.215057,333.683868 113.103073,361.649963 102.930443,389.593872 
	C102.717133,390.179840 102.286430,390.686615 101.595352,391.827728 
	C100.577057,390.000183 99.744820,388.664886 99.061874,387.257141 
	C88.679764,365.857605 78.270889,344.470703 68.030441,323.003448 
	C67.128403,321.112488 66.491531,318.340240 67.195648,316.554718 
	C74.150505,298.918549 81.411850,281.403168 88.604576,263.861053 
	C88.847786,263.267914 89.283249,262.753632 90.102127,261.448883 
	C95.626900,266.474243 100.968071,271.332581 106.566040,276.432190 
z"/>
<path fill="#904D37" opacity="1.000000" stroke="none" 
	d="
M342.296021,345.766113 
	C370.367767,347.267700 397.968597,348.737976 425.569397,350.208221 
	C425.753845,350.585449 425.938263,350.962646 426.122711,351.339844 
	C397.717041,368.594543 369.311401,385.849274 339.878845,403.727753 
	C335.861633,383.897644 331.994629,364.809052 327.972809,344.956390 
	C332.964325,345.236908 337.394714,345.485870 342.296021,345.766113 
z"/>
<path fill="#5EA650" opacity="1.000000" stroke="none" 
	d="
M101.806984,163.328323 
	C98.589630,155.131424 95.487526,147.313004 92.385429,139.494583 
	C92.620438,139.305038 92.855438,139.115479 93.090439,138.925934 
	C96.748863,143.109512 100.871162,146.978424 103.967613,151.543213 
	C110.114059,160.604248 115.653656,170.075211 121.534470,179.319214 
	C123.338524,182.154999 122.848564,184.384766 120.832870,186.940018 
	C117.556656,191.093231 114.634460,195.525696 111.354164,200.133408 
	C108.114792,187.622757 105.018517,175.664780 101.806984,163.328323 
z"/>
<path fill="#3E7135" opacity="1.000000" stroke="none" 
	d="
M158.838470,127.214981 
	C161.451843,133.459335 156.139038,135.918289 153.102356,139.535065 
	C154.058243,133.487061 155.014130,127.439049 155.970016,121.391037 
	C156.234726,121.377884 156.499435,121.364731 156.764145,121.351578 
	C157.418900,123.186546 158.073639,125.021515 158.838470,127.214981 
z"/>
</svg>