<?xml version="1.0" encoding="UTF-8"?>
<!DOCTYPE svg PUBLIC "-//W3C//DTD SVG 1.1//EN" "http://www.w3.org/Graphics/SVG/1.1/DTD/svg11.dtd">
<!-- Creator: CorelDRAW X6 -->
<svg xmlns="http://www.w3.org/2000/svg" xml:space="preserve" width="100%" height="100%" version="1.1" style="shape-rendering:geometricPrecision; text-rendering:geometricPrecision; image-rendering:optimizeQuality; fill-rule:evenodd; clip-rule:evenodd"
viewBox="0 0 500 500"
 xmlns:xlink="http://www.w3.org/1999/xlink">
 <defs>
  <style type="text/css">
   <![CDATA[
    .str0 {stroke:#282828;stroke-width:0.762;stroke-linejoin:round}
    .fil5 {fill:none}
    .fil6 {fill:#0083DB}
    .fil3 {fill:#606060}
    .fil0 {fill:#BEBEBE}
    .fil1 {fill:#CBCBCB}
    .fil4 {fill:#E5E5E5}
    .fil2 {fill:url(#id0)}
   ]]>
  </style>
  <linearGradient id="id0" gradientUnits="userSpaceOnUse" x1="29.245" y1="245" x2="175.757" y2="245">
   <stop offset="0" style="stop-color:#006DB6"/>
   <stop offset="1" style="stop-color:#17A2FF"/>
  </linearGradient>
 </defs>
 <g id="Layer_x0020_1">
  <metadata id="CorelCorpID_0Corel-Layer"/>
  <path class="fil0" d="M179 304l300 -179c-17,-20 -55,-10 -125,12 -51,15 -130,54 -212,135l37 32z"/>
  <path class="fil1" d="M179 196l300 179c-17,20 -55,10 -125,-12 -51,-15 -130,-54 -212,-135l37 -32z"/>
  <path class="fil2" d="M160 185l19 11 -37 32 -1 -1c-14,-23 -42,-33 -64,-47l-22 -12c-33,-19 -44,-62 -25,-95 19,-33 62,-45 95,-26l32 19c33,19 45,62 26,95 -6,10 -13,17 -23,24zm-42 -115l23 13c24,14 33,44 20,66 -13,22 -43,29 -66,15l-24 -13c-23,-14 -32,-44 -20,-66 13,-22 43,-29 67,-15zm42 245l19 -11 -37 -32 -1 1c-14,23 -42,33 -64,47l-22 12c-33,19 -44,62 -25,95 19,33 62,45 95,26l32 -19c33,-19 45,-62 26,-95 -6,-10 -13,-17 -23,-24zm-42 115l23 -13c24,-14 33,-44 20,-66 -13,-22 -43,-29 -66,-15l-24 13c-23,14 -32,44 -20,66 13,22 43,29 67,15z"/>
  <circle class="fil3" transform="matrix(3.32021E-014 -1.25364 1.25364 3.32021E-014 208.218 249.999)" r="13"/>
  <path class="fil4" d="M479 375l-238 -141c-6,11 -6,26 4,31l226 117c4,-2 6,-4 8,-7z"/>
  <path class="fil5 str0" d="M121 59l28 16c30,17 41,54 25,81 -16,28 -53,36 -82,19l-29 -16c-30,-17 -41,-54 -25,-81 16,-28 53,-36 83,-19z"/>
  <path class="fil6" d="M160 315l19 -11 -37 -32 -1 1c-14,23 -42,33 -64,47l-22 12c-33,19 -44,62 -25,95 19,33 62,45 95,26l32 -19c33,-19 45,-62 26,-95 -6,-10 -13,-17 -23,-24zm-42 115l23 -13c24,-14 33,-44 20,-66 -13,-22 -43,-29 -66,-15l-24 13c-23,14 -32,44 -20,66 13,22 43,29 67,15zm42 -245l19 11 -37 32 -1 -1c-14,-23 -42,-33 -64,-47l-22 -12c-33,-19 -44,-62 -25,-95 19,-33 62,-45 95,-26l32 19c33,19 45,62 26,95 -6,10 -13,17 -23,24zm-42 -115l23 13c24,14 33,44 20,66 -13,22 -43,29 -66,15l-24 -13c-23,-14 -32,-44 -20,-66 13,-22 43,-29 67,-15z"/>
 </g>
</svg>
